<svg width="14" height="14" viewBox="0 0 14 14" fill="none" xmlns="http://www.w3.org/2000/svg">
<g clip-path="url(#clip0_748_168)">
<path d="M2.24582 5.02782C2.16068 4.64429 2.17375 4.24548 2.28383 3.86835C2.39391 3.49122 2.59743 3.148 2.87551 2.87049C3.1536 2.59299 3.49725 2.39019 3.87461 2.2809C4.25197 2.17161 4.65081 2.15937 5.03416 2.24532C5.24515 1.91533 5.53583 1.64376 5.87938 1.45565C6.22293 1.26754 6.60831 1.16895 6.99999 1.16895C7.39167 1.16895 7.77705 1.26754 8.1206 1.45565C8.46415 1.64376 8.75483 1.91533 8.96582 2.24532C9.34975 2.159 9.74928 2.17118 10.1272 2.28074C10.5052 2.39029 10.8493 2.59365 11.1276 2.87191C11.4058 3.15017 11.6092 3.49428 11.7187 3.87224C11.8283 4.2502 11.8405 4.64972 11.7542 5.03365C12.0841 5.24465 12.3557 5.53532 12.5438 5.87887C12.7319 6.22243 12.8305 6.60781 12.8305 6.99949C12.8305 7.39117 12.7319 7.77655 12.5438 8.1201C12.3557 8.46365 12.0841 8.75432 11.7542 8.96532C11.8401 9.34867 11.8279 9.74751 11.7186 10.1249C11.6093 10.5022 11.4065 10.8459 11.129 11.124C10.8515 11.402 10.5083 11.6056 10.1311 11.7156C9.754 11.8257 9.35518 11.8388 8.97166 11.7537C8.76093 12.0849 8.47004 12.3576 8.1259 12.5466C7.78176 12.7355 7.39551 12.8346 7.00291 12.8346C6.61031 12.8346 6.22406 12.7355 5.87992 12.5466C5.53578 12.3576 5.24488 12.0849 5.03416 11.7537C4.65081 11.8396 4.25197 11.8274 3.87461 11.7181C3.49725 11.6088 3.1536 11.406 2.87551 11.1285C2.59743 10.851 2.39391 10.5077 2.28383 10.1306C2.17375 9.75349 2.16068 9.35468 2.24582 8.97115C1.9133 8.76071 1.6394 8.46959 1.4496 8.12486C1.25981 7.78014 1.16028 7.39301 1.16028 6.99949C1.16028 6.60597 1.25981 6.21884 1.4496 5.87411C1.6394 5.52939 1.9133 5.23826 2.24582 5.02782Z" stroke="#5C5C5C" stroke-width="1.2" stroke-linecap="round" stroke-linejoin="round"/>
<path d="M8.75 5.25L5.25 8.75" stroke="#5C5C5C" stroke-width="1.2" stroke-linecap="round" stroke-linejoin="round"/>
<path d="M5.25 5.25H5.25833" stroke="#5C5C5C" stroke-width="1.2" stroke-linecap="round" stroke-linejoin="round"/>
<path d="M8.75 8.75H8.75833" stroke="#5C5C5C" stroke-width="1.2" stroke-linecap="round" stroke-linejoin="round"/>
</g>
<defs>
<clipPath id="clip0_748_168">
<rect width="14" height="14" fill="white"/>
</clipPath>
</defs>
</svg>
