<svg width="16" height="17" viewBox="0 0 16 17" fill="none" xmlns="http://www.w3.org/2000/svg">
<g clip-path="url(#clip0_650_563)">
<path d="M15.1999 1.02344H10.6666C10.5199 1.02344 10.4 1.14344 10.4 1.2901C10.4 1.43676 10.5199 1.55676 10.6666 1.55676H15.1999C15.3465 1.55676 15.4665 1.67676 15.4665 1.82342V2.09009H11.4666C11.3199 2.09009 11.1999 2.21008 11.1999 2.35675C11.1999 2.50341 11.3199 2.62341 11.4666 2.62341H15.4665V4.49005H11.9999C11.8533 4.49005 11.7333 4.61004 11.7333 4.75671C11.7333 4.90337 11.8533 5.02337 11.9999 5.02337H15.4665V5.29003C15.4665 5.4367 15.3465 5.55669 15.1999 5.55669H11.7333C11.5866 5.55669 11.4666 5.67669 11.4666 5.82336C11.4666 5.97002 11.5866 6.09002 11.7333 6.09002H15.0065L15.3632 7.15667H15.1999H9.27664C10.4066 6.66334 11.1999 5.53336 11.1999 4.22338C11.1999 2.46008 9.7633 1.02344 7.99999 1.02344C6.23669 1.02344 4.80005 2.46008 4.80005 4.22338C4.80005 5.53336 5.59337 6.66334 6.72335 7.15667H0.800113H0.636782L0.993443 6.09002H4.53338C4.68005 6.09002 4.80005 5.97002 4.80005 5.82336C4.80005 5.67669 4.68005 5.55669 4.53338 5.55669H0.800113C0.653448 5.55669 0.53345 5.4367 0.53345 5.29003V5.02337H4.00006C4.14672 5.02337 4.26672 4.90337 4.26672 4.75671C4.26672 4.61004 4.14672 4.49005 4.00006 4.49005H0.53345V2.62341H4.53338C4.68005 2.62341 4.80005 2.50341 4.80005 2.35675C4.80005 2.21008 4.68005 2.09009 4.53338 2.09009H0.53345V1.82342C0.53345 1.67676 0.653448 1.55676 0.800113 1.55676H5.60003C5.7467 1.55676 5.86669 1.43676 5.86669 1.2901C5.86669 1.14344 5.7467 1.02344 5.60003 1.02344H0.800113C0.36012 1.02344 0.000126101 1.38343 0.000126101 1.82342V2.35675V4.75671V5.29003C0.000126101 5.60669 0.18679 5.88002 0.456785 6.01002L0.0134592 7.34C-0.013207 7.42 0.000126097 7.51 0.0501253 7.57999C0.100124 7.64999 0.180123 7.68999 0.266788 7.68999H0.53345V15.4732C0.223456 15.5832 0.000126101 15.8765 0.000126101 16.2232V16.7565C0.000126101 16.9032 0.120124 17.0232 0.266788 17.0232H15.7332C15.8799 17.0232 15.9999 16.9032 15.9999 16.7565V16.2232C15.9999 15.8765 15.7765 15.5832 15.4665 15.4732V7.68999H15.7332C15.8199 7.68999 15.8999 7.64999 15.9499 7.57999C15.9999 7.51 16.0132 7.42 15.9865 7.34L15.5432 6.01002C15.8132 5.88002 15.9999 5.60669 15.9999 5.29003V4.75671V2.35675V1.82342C15.9999 1.38343 15.6399 1.02344 15.1999 1.02344ZM5.33337 4.22338C5.33337 2.75341 6.53002 1.55676 7.99999 1.55676C9.46997 1.55676 10.6666 2.75341 10.6666 4.22338C10.6666 5.69336 9.46997 6.89001 7.99999 6.89001C6.53002 6.89001 5.33337 5.69336 5.33337 4.22338ZM1.06677 7.68999H14.9332V15.4232H9.59997V13.5566V12.4899V8.48998C9.59997 8.34332 9.47997 8.22332 9.3333 8.22332H6.66668C6.52002 8.22332 6.40002 8.34332 6.40002 8.48998V12.4899V13.5566V15.4232H1.06677V7.68999ZM6.93334 13.2899V12.7566H9.06664V13.2899H6.93334ZM9.06664 13.8232V15.4232H6.93334V13.8232H9.06664ZM6.93334 12.2233V8.75664H9.06664V12.2233H6.93334ZM15.4665 16.4898H0.53345V16.2232C0.53345 16.0765 0.653448 15.9565 0.800113 15.9565H6.66668H9.3333H15.1999C15.3465 15.9565 15.4665 16.0765 15.4665 16.2232V16.4898Z" fill="#5C5C5C"/>
<path d="M5.60003 8.22339H1.86676C1.7201 8.22339 1.6001 8.34339 1.6001 8.49005V13.29V14.3566C1.6001 14.5033 1.7201 14.6233 1.86676 14.6233H5.60003C5.7467 14.6233 5.86669 14.5033 5.86669 14.3566V13.29V8.49005C5.86669 8.34339 5.7467 8.22339 5.60003 8.22339ZM5.33337 14.09H2.13342V13.5566H5.33337V14.09ZM5.33337 13.0233H2.13342V8.75671H3.46673V9.86003C3.00674 9.98003 2.66675 10.3934 2.66675 10.89C2.66675 11.0367 2.78674 11.1567 2.93341 11.1567H4.53338C4.68005 11.1567 4.80004 11.0367 4.80004 10.89C4.80004 10.3934 4.46005 9.98003 4.00006 9.86003V8.75671H5.33337V13.0233ZM3.7334 10.3567C3.93006 10.3567 4.10339 10.4634 4.19339 10.6233H3.27007C3.3634 10.4634 3.53673 10.3567 3.7334 10.3567Z" fill="#5C5C5C"/>
<path d="M14.1332 8.22339H10.4C10.2533 8.22339 10.1333 8.34339 10.1333 8.49005V13.29V14.3566C10.1333 14.5033 10.2533 14.6233 10.4 14.6233H14.1332C14.2799 14.6233 14.3999 14.5033 14.3999 14.3566V13.29V8.49005C14.3999 8.34339 14.2799 8.22339 14.1332 8.22339ZM13.8666 14.09H10.6666V13.5566H13.8666V14.09ZM13.8666 13.0233H10.6666V8.75671H11.9999V9.86003C11.5399 9.98003 11.1999 10.3934 11.1999 10.89C11.1999 11.0367 11.3199 11.1567 11.4666 11.1567H13.0666C13.2132 11.1567 13.3332 11.0367 13.3332 10.89C13.3332 10.3934 12.9933 9.98003 12.5333 9.86003V8.75671H13.8666V13.0233ZM12.2666 10.3567C12.4633 10.3567 12.6366 10.4634 12.7266 10.6233H11.8033C11.8966 10.4634 12.0699 10.3567 12.2666 10.3567Z" fill="#5C5C5C"/>
<path d="M9.31331 3.1834C9.19998 2.56341 8.65332 2.09009 8 2.09009C7.34667 2.09009 6.80002 2.56341 6.68669 3.1834C6.21669 3.2934 5.8667 3.71673 5.8667 4.22339C5.8667 4.72004 6.20669 5.1367 6.66669 5.2567V6.09002C6.66669 6.23669 6.78668 6.35668 6.93335 6.35668H9.06665C9.21331 6.35668 9.33331 6.23669 9.33331 6.09002V5.2567C9.7933 5.1367 10.1333 4.72004 10.1333 4.22339C10.1333 3.72006 9.7833 3.29673 9.31331 3.1834ZM9.06665 4.75671C8.91998 4.75671 8.79998 4.87671 8.79998 5.02337V5.82336H7.20001V5.02337C7.20001 4.87671 7.08001 4.75671 6.93335 4.75671C6.64002 4.75671 6.40002 4.51671 6.40002 4.22339C6.40002 3.94672 6.61002 3.72339 6.88002 3.69673C7.22334 3.87339 7.21334 4.12672 7.20668 4.18005C7.18001 4.32338 7.27668 4.46005 7.42001 4.48671C7.43667 4.49005 7.45334 4.49005 7.47001 4.49005C7.59667 4.49005 7.70667 4.40005 7.73 4.27338C7.77333 4.04672 7.70667 3.57673 7.21668 3.2734C7.28668 2.90341 7.61 2.62341 8 2.62341C8.43999 2.62341 8.79998 2.98341 8.79998 3.4234C8.79998 3.57006 8.91998 3.69006 9.06665 3.69006C9.35997 3.69006 9.59997 3.93006 9.59997 4.22339C9.59997 4.51671 9.35997 4.75671 9.06665 4.75671Z" fill="#5C5C5C"/>
</g>
<defs>
<clipPath id="clip0_650_563">
<rect width="16" height="16" fill="white" transform="translate(0 0.546753)"/>
</clipPath>
</defs>
</svg>
